# xmcd
#
# Track frame offsets:
#	150
#	28882
#	47678
#	66306
#	83116
#	106681
#	129094
#	156199
#	168747
#	184847
#	204968
#	219267
#	240654
#
# Disc length: 3572 seconds
#
# Revision: 1
# Processed by: cddbd v1.4b41PL2 Copyright (c) Steve Scherf et al.
# Submitted via: audiograbber 1.80
#
DISCID=aa0df20d
DTITLE=Cary Swinney - Human Masquerade
DYEAR=1900
DGENRE=
TTITLE0=Human Masquerade
TTITLE1=Death Is Strange (Life Is Too)
TTITLE2=Fools Like Me
TTITLE3=Jesus Silverstein
TTITLE4=Hair In The Windshield
TTITLE5=Love Is Never Caged
TTITLE6=When I Was A Kid
TTITLE7=Country Music Music
TTITLE8=Will They Bury You With Your Shoes On?
TTITLE9=Desperate Searcher
TTITLE10=What If God Is A Woman?
TTITLE11=The Problem With Humans...
TTITLE12=Dream Song
EXTD=
EXTT0=
EXTT1=
EXTT2=
EXTT3=
EXTT4=
EXTT5=
EXTT6=
EXTT7=
EXTT8=
EXTT9=
EXTT10=
EXTT11=
EXTT12=
PLAYORDER=
